<?xml version="1.0" encoding="UTF-8" standalone="no"?>
<!-- Created with Inkscape (http://www.inkscape.org/) -->

<svg
   xmlns:dc="http://purl.org/dc/elements/1.1/"
   xmlns:cc="http://creativecommons.org/ns#"
   xmlns:rdf="http://www.w3.org/1999/02/22-rdf-syntax-ns#"
   xmlns:svg="http://www.w3.org/2000/svg"
   xmlns="http://www.w3.org/2000/svg"
   xmlns:sodipodi="http://sodipodi.sourceforge.net/DTD/sodipodi-0.dtd"
   xmlns:inkscape="http://www.inkscape.org/namespaces/inkscape"
   width="261.20605mm"
   height="47.539608mm"
   viewBox="0 0 925.53326 168.44743"
   id="svg2"
   version="1.1"
   inkscape:version="0.92.4 (5da689c313, 2019-01-14)"
   sodipodi:docname="logo_transparent_black.svg">
  <defs
     id="defs4" />
  <sodipodi:namedview
     id="base"
     pagecolor="#ffffff"
     bordercolor="#666666"
     borderopacity="1.0"
     inkscape:pageopacity="0.0"
     inkscape:pageshadow="2"
     inkscape:zoom="0.81454783"
     inkscape:cx="212.4087"
     inkscape:cy="69.100263"
     inkscape:document-units="px"
     inkscape:current-layer="layer1"
     showgrid="false"
     inkscape:window-width="1916"
     inkscape:window-height="1039"
     inkscape:window-x="0"
     inkscape:window-y="20"
     inkscape:window-maximized="0" />
  <metadata
     id="metadata7">
    <rdf:RDF>
      <cc:Work
         rdf:about="">
        <dc:format>image/svg+xml</dc:format>
        <dc:type
           rdf:resource="http://purl.org/dc/dcmitype/StillImage" />
        <dc:title></dc:title>
      </cc:Work>
    </rdf:RDF>
  </metadata>
  <g
     inkscape:label="Layer 1"
     inkscape:groupmode="layer"
     id="layer1"
     transform="translate(-73.035893,-561.32852)">
    <path
       style="fill:#01093a"
       d="m 112.9953,729.6232 c -0.0925,-0.15763 -1.90217,-7.64273 -4.40479,-18.21907 -0.78817,-3.33084 -2.07807,-8.78129 -2.86647,-12.11213 -0.78838,-3.33083 -2.26031,-9.49122 -3.27095,-13.68975 -1.01063,-4.19853 -2.28337,-9.55738 -2.828296,-11.90855 -0.54494,-2.35118 -1.45946,-6.19856 -2.03227,-8.54974 -0.57281,-2.35117 -1.54506,-6.42756 -2.16056,-9.05864 -1.14443,-4.89216 -4.07998,-17.22302 -7.51157,-31.55258 -1.05907,-4.42245 -2.29801,-9.6439 -2.75319,-11.60321 -0.45518,-1.95931 -1.59826,-6.76854 -2.54019,-10.68717 -0.94193,-3.91862 -2.36328,-9.8729 -3.15856,-13.23172 -5.22256,-22.05735 -6.32809,-26.70595 -6.42666,-27.02327 -0.1049,-0.33768 0.97713,-0.35624 20.76847,-0.35624 19.130896,0 20.879136,0.0277 20.879136,0.33055 0,0.1818 0.87632,3.96048 1.94737,8.39705 1.07106,4.43659 2.39342,9.99021 2.93857,12.34139 0.54516,2.35117 1.45969,6.19855 2.0323,8.54973 0.5726,2.35118 1.58823,6.61078 2.25695,9.46578 0.66872,2.855 2.08223,8.80928 3.14113,13.23173 2.84038,11.86268 5.19341,21.73783 7.22726,30.33119 6.29654,26.60393 9.22043,38.77053 9.3561,38.93168 0.0706,0.0839 1.19873,-4.35891 2.5069,-9.8729 4.51383,-19.02612 5.47046,-23.07217 6.67803,-28.24452 0.66655,-2.855 2.12512,-9.03829 3.24127,-13.74064 3.46039,-14.57861 5.05754,-21.33876 6.61298,-27.9902 0.82473,-3.52676 2.42194,-10.30548 3.54934,-15.06381 1.12741,-4.75834 2.92735,-12.36149 3.99987,-16.8959 1.07253,-4.53441 2.03781,-8.5879 2.14507,-9.00776 l 0.19502,-0.76337 h 20.90896 20.90895 l 0.34412,1.47585 c 2.12119,9.09707 3.64734,15.57466 4.6642,19.7967 0.67413,2.79902 1.81014,7.60825 2.52446,10.68717 0.71432,3.07892 2.07148,8.84999 3.0159,12.8246 0.94442,3.97461 2.88417,12.17319 4.31056,18.21907 1.42638,6.04588 3.36665,14.24447 4.3117,18.21908 0.94505,3.9746 2.30365,9.74567 3.0191,12.82459 0.71545,3.07892 2.07531,8.84999 3.02191,12.8246 0.94661,3.97461 2.11719,8.94414 2.60129,11.0434 0.4841,2.09927 0.93502,3.81685 1.00204,3.81685 0.067,0 0.22608,-0.43512 0.35349,-0.96694 0.1274,-0.53181 1.14342,-4.81431 2.25783,-9.51666 1.11439,-4.70236 2.62293,-11.02305 3.35231,-14.04599 0.72936,-3.02294 1.56228,-6.54408 1.85092,-7.82474 1.02637,-4.55393 0.85282,-4.55283 1.96553,-0.0125 0.53505,2.18323 1.68215,7.01536 2.54912,10.73805 l 1.57631,6.76854 h 6.73872 6.73872 l 2.27729,-9.61845 c 2.61853,-11.05969 5.01384,-21.2129 5.47475,-23.20642 0.17474,-0.75573 0.37647,-1.37352 0.44829,-1.37286 0.0718,6.1e-4 0.78963,2.81749 1.5951,6.25963 0.80548,3.44213 2.29617,9.73938 3.31263,13.99389 1.01644,4.25451 2.178,9.13244 2.58123,10.83984 l 0.73314,3.10437 h 0.66907 0.66908 l -0.27901,1.1705 c -0.15344,0.64378 -0.96994,4.10184 -1.81443,7.68458 -0.84449,3.58275 -2.54153,10.77368 -3.77119,15.97986 -1.22965,5.20618 -2.88315,12.21107 -3.67445,15.56645 -1.23741,5.24712 -1.62089,6.70687 -1.62089,6.17004 0,-0.24283 -6.2444,-26.91451 -6.97149,-29.77731 l -0.25851,-1.01783 -5.54921,-0.0541 -5.54922,-0.0542 -0.17341,0.4613 c -0.0954,0.25371 -0.83564,3.30103 -1.64505,6.77181 -0.8094,3.47079 -2.41702,10.29531 -3.57249,15.1656 -1.15547,4.87029 -2.16417,9.1986 -2.24155,9.61845 -0.13614,0.73863 -0.50252,1.07492 -0.50252,0.46125 0,-0.16617 -1.04681,-4.67768 -2.32625,-10.02558 -1.27944,-5.3479 -2.93858,-12.33418 -3.68699,-15.52506 -0.74841,-3.19089 -1.42463,-5.91934 -1.50271,-6.06324 -0.0781,-0.1439 -0.58262,1.64239 -1.1212,3.96952 -0.53858,2.32713 -1.78219,7.60373 -2.76357,11.72576 l -1.78432,7.49462 1.31041,5.43176 c 1.58984,6.59004 3.73197,15.75568 3.732,15.9683 2e-5,0.0851 -4.22967,0.13089 -9.3993,0.10178 l -9.39932,-0.0529 -1.08427,-4.58022 c -0.59634,-2.51912 -2.13712,-8.97722 -3.42395,-14.35134 -3.16543,-13.21963 -4.63491,-19.3737 -7.12105,-29.82228 -2.09308,-8.79667 -3.64584,-15.28509 -6.55227,-27.3795 -0.83406,-3.47078 -2.33057,-9.74567 -3.32556,-13.9442 -0.99499,-4.19853 -2.49092,-10.47342 -3.3243,-13.94421 -0.83338,-3.47078 -2.39876,-10.02049 -3.47863,-14.5549 -1.07987,-4.53441 -2.03383,-8.41718 -2.1199,-8.62836 -0.11237,-0.27575 -0.25871,0.0972 -0.51916,1.32317 -0.19947,0.93893 -1.39718,6.05835 -2.66157,11.37649 -2.62934,11.05931 -4.3136,18.1777 -7.44145,31.4508 -2.50624,10.63527 -3.67026,15.56335 -7.21235,30.53476 -1.37743,5.82196 -3.67163,15.53201 -5.09822,21.5779 -1.4266,6.04588 -3.4445,14.56508 -4.48424,18.93155 -1.03973,4.36647 -2.10108,8.87798 -2.35856,10.02558 l -0.46814,2.08654 h -24.98554 c -13.74205,0 -25.02587,-0.0687 -25.07515,-0.15268 z m 143.17181,-0.0225 c 0,-0.0964 1.00667,-4.42467 2.23702,-9.61845 1.23036,-5.19376 3.02676,-12.78677 3.992,-16.87334 0.96524,-4.08657 1.78851,-7.46614 1.82949,-7.51016 0.1258,-0.1351 0.24086,0.30479 1.59169,6.0852 0.71952,3.07892 2.04368,8.66678 2.94259,12.41747 2.02867,8.46455 3.69242,15.4918 3.69242,15.59581 0,0.0433 -3.66417,0.0787 -8.14261,0.0787 -4.47843,0 -8.1426,-0.0788 -8.1426,-0.17523 z m 158.71319,-0.75457 c -5.22651,-0.81303 -8.7787,-2.54879 -12.04456,-5.88552 -1.88521,-1.92613 -3.32305,-4.20351 -4.30582,-6.81996 -1.06947,-2.84724 -1.3051,-4.22202 -1.43152,-8.35237 -0.17075,-5.57922 0.35647,-8.72719 2.0689,-12.35301 2.70701,-5.73175 7.34304,-9.39256 13.80987,-10.90492 1.60414,-0.37514 2.5034,-0.43832 6.34734,-0.44592 4.5802,-0.009 5.33709,0.0764 8.34617,0.94183 5.37732,1.54664 10.11827,5.81267 12.30958,11.07648 1.51157,3.63092 2.20764,9.55 1.66455,14.15449 -1.07173,9.08674 -6.04627,15.38502 -14.04161,17.77813 -3.63461,1.08789 -8.81803,1.41821 -12.7229,0.81077 z m 6.60475,-8.02682 c 2.91813,-0.54109 5.53388,-2.62118 6.93253,-5.51287 2.19189,-4.53165 2.34961,-11.99701 0.35449,-16.77775 -0.68723,-1.64675 -1.98093,-3.45398 -3.14249,-4.38993 -2.84379,-2.29143 -7.60591,-2.6677 -11.13426,-0.87974 -4.23825,2.14768 -6.56902,8.90743 -5.64417,16.36931 0.29481,2.37856 0.71272,3.91467 1.53081,5.62663 2.05642,4.30335 6.33631,6.44823 11.10309,5.56435 z m 130.15676,8.20678 c -3.20625,-0.27843 -7.80212,-1.22574 -11.14519,-2.29728 l -1.98476,-0.63617 v -4.77421 c 0,-2.62583 0.0323,-4.77423 0.0718,-4.77423 0.0395,0 1.02422,0.44899 2.18832,0.99775 4.95048,2.33365 9.00827,3.36033 13.31265,3.36827 3.28194,0.006 4.63277,-0.30029 6.03287,-1.36817 1.26526,-0.96505 1.70537,-1.82736 1.68585,-3.3032 -0.0401,-3.03484 -1.42699,-3.90445 -8.94011,-5.60573 -6.48503,-1.46849 -9.21515,-2.61799 -11.43217,-4.81345 -2.25451,-2.23257 -3.12273,-4.57382 -3.12273,-8.42079 0,-4.09863 1.02546,-6.90428 3.37635,-9.23763 3.03063,-3.00802 6.74608,-4.18746 13.19122,-4.18746 4.55837,0 8.7453,0.52067 13.22816,1.64502 l 1.75685,0.44062 v 4.65974 4.65973 l -0.76337,-0.33414 c -1.69315,-0.74113 -5.50181,-1.9353 -7.4495,-2.33571 -4.01388,-0.82521 -8.52606,-0.72424 -10.70486,0.23954 -1.78357,0.78896 -2.5265,1.87823 -2.51008,3.68024 0.0242,2.65901 1.41348,3.49627 8.0943,4.87817 6.90377,1.42801 9.30816,2.21346 11.65557,3.80757 2.26063,1.53515 3.47127,3.27266 4.14975,5.95564 0.61383,2.42741 0.46765,6.64031 -0.31477,9.07199 -1.60334,4.98288 -5.77492,7.82333 -12.64548,8.61038 -1.70441,0.19524 -5.87235,0.23488 -7.73063,0.0735 z m 47.77749,-0.0856 c -2.1174,-0.28564 -5.0063,-1.05189 -6.8333,-1.81246 -4.241,-1.76553 -8.1344,-5.39039 -10.1653,-9.46418 -3.5554,-7.13174 -3.0665,-17.85026 1.1039,-24.20282 2.9721,-4.52728 7.7337,-7.64596 13.7158,-8.98343 0.8666,-0.19375 2.9405,-0.36286 5.2927,-0.43157 5.4418,-0.15895 8.4285,0.36115 12.6719,2.20668 l 1.883,0.81893 v 4.56783 4.56783 l -0.8652,-0.59342 c -2.2922,-1.57225 -5.8812,-2.91585 -8.8469,-3.31199 -2.1274,-0.28417 -5.2066,-0.13193 -6.7767,0.33504 -3.9861,1.18555 -6.9221,4.22457 -8.1518,8.43782 -0.6314,2.16341 -0.7916,7.18133 -0.3058,9.57879 1.4943,7.37458 7.1901,11.22884 15.0459,10.18127 2.967,-0.39564 6.3827,-1.66788 9.1238,-3.39823 l 0.7767,-0.49032 v 4.56377 4.56378 l -1.5777,0.66199 c -3.9443,1.65512 -6.6633,2.22245 -11.1451,2.32549 -1.9034,0.0438 -4.129,-0.0106 -4.9459,-0.1208 z m -299.43572,-22.42183 0.0518,-21.83235 5.64893,-0.0541 5.64893,-0.0541 v 21.88647 21.88646 h -5.70074 -5.70073 l 0.0518,-21.83236 z m 22.34218,-0.0522 v -21.88454 l 15.21649,0.0522 15.21649,0.0522 v 4.27487 4.27486 l -9.51667,0.0529 -9.51667,0.0529 v 3.9675 3.9675 h 8.95687 8.95686 v 4.27487 4.27487 h -8.95686 -8.95687 v 4.98734 4.98735 h 9.76327 9.76326 l 0.0588,4.27506 0.0588,4.27506 -15.52184,-1.9e-4 -15.52183,-2e-4 v -21.88454 z m 40.96655,0.0522 0.0518,-21.83235 5.64893,-0.0541 5.64893,-0.0541 v 17.6116 17.61159 h 9.8729 9.87291 v 4.27487 4.27487 h -15.57364 -15.57365 l 0.0518,-21.83236 z m 87.22727,0 0.0496,-21.83235 8.80549,0.0134 c 9.18474,0.014 12.27962,0.19399 15.91448,0.92534 4.09222,0.82337 7.64142,2.65919 10.38509,5.37172 3.836,3.79247 5.65009,8.11182 5.9495,14.16579 0.35532,7.18513 -1.69328,12.83446 -6.20198,17.1028 -3.92447,3.71525 -8.08404,5.28331 -15.59176,5.87776 -1.44377,0.11431 -6.3904,0.20784 -10.99252,0.20784 h -8.3675 l 0.0496,-21.83235 z m 18.78016,12.99596 c 3.23035,-0.53231 5.50458,-1.60269 7.25453,-3.41441 1.35827,-1.40621 1.98706,-2.44676 2.65097,-4.38687 0.46154,-1.34874 0.5541,-2.01566 0.62915,-4.53309 0.14557,-4.8818 -0.77863,-7.75811 -3.30433,-10.2838 -2.56152,-2.56154 -5.74985,-3.55134 -11.4543,-3.55595 l -3.30793,-0.003 v 13.23173 13.23173 l 2.9008,-6.8e-4 c 1.59544,-4e-4 3.67944,-0.12908 4.63111,-0.28589 z m 37.2498,-0.37492 -0.003,-9.21132 -8.16494,-12.41747 c -4.49072,-6.82961 -8.20931,-12.53198 -8.26356,-12.67193 -0.0776,-0.2001 1.20633,-0.25445 6.01057,-0.25445 h 6.10919 l 2.03003,3.20615 c 6.49389,10.25614 7.79797,12.26543 7.95852,12.26239 0.0698,-0.001 1.15696,-1.62731 2.41579,-3.61328 1.25882,-1.98598 3.45732,-5.44296 4.88556,-7.68218 l 2.59678,-4.0713 6.15784,-0.0539 c 3.38681,-0.0297 6.15784,-0.007 6.15784,0.0496 0,0.0569 -1.0427,1.68425 -2.3171,3.61627 -1.27442,1.93202 -4.98439,7.58207 -8.24438,12.55568 l -5.92725,9.04293 v 9.22704 9.22704 h -5.69982 -5.69982 l -0.003,-9.21132 z m 130.48786,-0.005 v -9.2167 l -8.2444,-12.55641 c -4.5344,-6.90604 -8.2444,-12.60598 -8.2444,-12.66655 0,-0.0606 2.7453,-0.11014 6.1007,-0.11014 h 6.1007 l 0.7522,1.1705 c 0.9564,1.48825 4.4365,6.95816 7.026,11.04341 1.1,1.73539 2.0908,3.15525 2.2018,3.15525 0.111,0 2.3884,-3.43516 5.061,-7.63369 l 4.8592,-7.63369 6.1607,-0.0539 c 4.9019,-0.0429 6.14,-10e-4 6.0593,0.20356 -0.056,0.14162 -3.776,5.84533 -8.2673,12.67494 l -8.1659,12.41745 v 9.21133 9.21134 h -5.6998 -5.6998 z m 32.8239,-12.61566 0.052,-21.83236 10.9926,0.004 c 9.7,0.004 11.2034,0.0468 12.7863,0.36517 6.3616,1.27953 10.2363,4.50331 11.6669,9.70693 0.5083,1.84883 0.5095,6.49639 0,8.32855 -1.3641,4.92723 -5.0797,8.21828 -10.7464,9.5186 -1.1325,0.25988 -2.9271,0.37129 -7.3986,0.45929 l -5.9034,0.1162 -0.053,7.5828 -0.053,7.5828 h -5.6983 -5.6982 l 0.052,-21.83236 z m 19.6645,-1.79349 c 1.531,-0.32833 3.0686,-1.34681 3.7838,-2.50629 0.5467,-0.88633 0.6202,-1.20164 0.691,-2.96427 0.068,-1.70078 0.016,-2.1181 -0.3757,-3.03006 -0.5153,-1.19784 -1.4793,-2.1365 -2.836,-2.76163 -0.8295,-0.38217 -1.3791,-0.43419 -5.2522,-0.49703 l -4.3257,-0.0702 v 6.02267 6.02266 h 3.6541 c 2.0098,0 4.1071,-0.0971 4.6607,-0.21586 z m 24.3056,1.79349 0.052,-21.83236 5.6489,-0.0541 5.6489,-0.0541 v 17.6116 17.6116 h 9.8729 9.8729 v 4.27487 4.27486 h -15.5737 -15.5736 l 0.052,-21.83235 z m 38.4238,-0.0509 v -21.88325 h 5.598 5.598 v 21.88325 21.88324 h -5.598 -5.598 z m 22.1886,0 v -21.88325 h 6.2929 6.2929 l 1.876,3.5115 c 1.0318,1.93132 2.3104,4.33593 2.8412,5.34358 1.1902,2.25942 3.7662,7.12407 7.384,13.94421 1.5144,2.855 2.9874,5.64893 3.2733,6.20873 l 0.5198,1.01783 0.01,-15.01293 0.01,-15.01292 h 5.3945 5.3945 v 21.88325 21.88324 l -6.3614,-0.005 -6.3614,-0.005 -2.3232,-4.42245 c -1.2778,-2.43234 -3.3939,-6.43774 -4.7024,-8.90088 -1.3086,-2.46314 -3.3714,-6.35632 -4.584,-8.65152 -1.2126,-2.29519 -2.6449,-4.99752 -3.1829,-6.00517 l -0.9782,-1.83208 v 14.91114 14.91114 h -5.3945 -5.3944 v -21.88324 z m 46.096,19.38957 c 0.488,-1.37152 1.8441,-5.05859 3.0138,-8.1935 1.1695,-3.1349 3.3498,-8.99757 4.8449,-13.02816 1.4953,-4.03059 3.7774,-10.16807 5.0714,-13.63886 l 2.3528,-6.31052 6.7498,-0.0536 6.7498,-0.0536 0.2472,0.7661 c 0.26,0.80635 4.7092,12.84041 7.621,20.61368 0.9436,2.51912 2.4915,6.68712 3.4397,9.26221 0.9481,2.5751 2.4176,6.55091 3.2655,8.83514 0.8479,2.28423 1.5416,4.18502 1.5416,4.22398 0,0.0389 -2.5419,0.0699 -5.6489,0.0688 l -5.6489,-0.002 -0.9954,-2.79701 c -0.5476,-1.53836 -1.1724,-3.27794 -1.3888,-3.86573 l -0.3932,-1.06872 h -8.8176 -8.8177 l -1.3901,3.86774 -1.3901,3.86773 h -5.647 -5.6471 l 0.8873,-2.49367 z m 28.0016,-13.44744 c 0,-0.0347 -0.511,-1.52324 -1.1357,-3.30793 -0.6247,-1.78469 -1.9035,-5.51375 -2.8418,-8.2868 -0.9384,-2.77304 -1.787,-5.1864 -1.8859,-5.36302 -0.1306,-0.23346 -0.465,0.5038 -1.2249,2.7009 -0.5749,1.66211 -1.8744,5.42603 -2.8877,8.36424 -1.0133,2.93822 -1.8954,5.48024 -1.9601,5.64893 -0.1033,0.26899 0.6236,0.30672 5.9092,0.30672 3.3149,0 6.0269,-0.0284 6.0269,-0.063 z m 22.5958,-5.94213 v -21.88325 l 9.2113,0.002 c 5.0662,10e-4 10.2924,0.0969 11.6138,0.21286 4.4918,0.39407 7.9163,1.61121 10.128,3.59979 3.1303,2.81441 4.0071,9.57251 1.8198,14.02693 -0.8756,1.78317 -2.8344,3.55983 -5.1247,4.64823 l -1.7864,0.8489 1.1321,0.46924 c 2.421,1.00342 4.5969,3.69448 7.0027,8.66057 0.7593,1.56745 2.3013,4.7507 3.4266,7.07389 l 2.0461,4.22397 h -5.9477 -5.9478 l -3.2911,-6.58611 c -4.6375,-9.28037 -5.0669,-9.69621 -10.1858,-9.8623 l -2.6973,-0.0875 v 8.26796 8.26796 h -5.6998 -5.6998 v -21.88324 z m 20.2599,-3.25861 c 1.0062,-0.51483 1.2872,-0.78575 1.7662,-1.70265 0.5095,-0.97545 0.5696,-1.29833 0.5696,-3.06284 0,-1.71547 -0.069,-2.11063 -0.5286,-3.03319 -0.9734,-1.95336 -2.5703,-2.47979 -7.5223,-2.47979 h -3.1452 v 5.51532 5.51533 l 3.8319,-0.07 c 3.7965,-0.0693 3.8429,-0.0756 5.0284,-0.68222 z m 25.9493,3.25861 v -21.88325 h 6.272 6.2719 l 1.6999,3.20615 c 0.935,1.76338 2.8863,5.45046 4.3363,8.19349 1.45,2.74304 3.344,6.31561 4.2088,7.93904 0.8649,1.62343 2.4806,4.67497 3.5905,6.78119 l 2.018,3.8295 0.052,-14.97806 0.052,-14.97806 5.3423,0.0543 5.3422,0.0543 0.052,21.83235 0.052,21.83235 h -6.4109 -6.411 l -0.8419,-1.67941 c -0.4631,-0.92367 -1.9409,-3.74051 -3.2841,-6.25962 -1.3431,-2.51912 -3.1932,-6.00008 -4.1114,-7.73548 -5.6284,-10.63772 -7.3512,-13.84222 -7.4416,-13.84234 -0.056,-7e-5 -0.078,6.64119 -0.048,14.75836 l 0.054,14.75849 h -5.3971 -5.3971 V 706.4682 Z m 50.1271,0.0509 0.052,-21.83236 15.2165,-0.0522 15.2165,-0.0522 v 4.37795 4.37794 h -9.5676 -9.5675 v 3.96952 3.96952 h 8.9569 8.9568 v 4.27487 4.27486 h -8.9568 -8.9569 v 4.98735 4.98734 h 9.8729 9.8729 v 4.27487 4.27486 h -15.5736 -15.5737 l 0.052,-21.83235 z m -550.08285,-37.1291 c -4.60929,-0.28164 -9.76158,-1.32365 -13.54592,-2.73955 l -1.11077,-0.4156 v -4.75499 -4.75501 l 2.349,1.11656 c 4.90637,2.33217 8.58051,3.21974 13.32551,3.21909 2.76177,-4.1e-4 3.29128,-0.0553 4.24586,-0.44065 2.43034,-0.98099 3.32676,-2.09631 3.32676,-4.13914 0,-3.08938 -1.519,-4.02767 -9.21128,-5.68974 -6.0697,-1.31148 -8.51724,-2.33769 -10.9521,-4.59201 -2.42921,-2.24905 -3.36642,-4.65977 -3.35799,-8.63752 0.008,-3.89878 0.95871,-6.5264 3.22883,-8.92628 1.53068,-1.6182 2.96309,-2.51986 5.26187,-3.31222 3.22154,-1.11042 7.32614,-1.44255 12.24183,-0.99057 2.41579,0.22211 7.06513,1.01474 9.36399,1.59638 l 1.42496,0.36053 0.0548,4.64301 c 0.0514,4.35989 0.0328,4.63648 -0.30535,4.53582 -0.19807,-0.059 -1.33443,-0.4806 -2.52522,-0.937 -7.2001,-2.75951 -14.83921,-2.96648 -17.45783,-0.47298 -1.66813,1.58843 -1.55615,4.27814 0.23313,5.59952 1.05377,0.77819 2.08361,1.08928 6.88648,2.08016 5.31718,1.09699 7.78073,1.84275 10.21013,3.09081 3.14637,1.61636 4.8581,3.82386 5.57213,7.18593 0.39404,1.85539 0.28098,5.96583 -0.21556,7.83726 -1.2998,4.89891 -4.94938,7.93471 -10.8868,9.05592 -1.94999,0.36823 -6.05274,0.61082 -8.15644,0.48227 z m -110.95754,-2.25757 c 0.32352,-0.86944 1.198,-3.22968 1.94331,-5.24497 0.74529,-2.0153 2.25864,-6.09169 3.36298,-9.05865 1.10434,-2.96696 3.34832,-9.01284 4.98659,-13.43529 1.63829,-4.42245 3.50934,-9.46068 4.1579,-11.19608 l 1.17921,-3.15525 h 6.77674 6.77674 l 1.17974,3.15525 c 0.64885,1.7354 2.3842,6.40721 3.85632,10.38182 3.30747,8.92987 7.62282,20.56204 8.98679,24.22424 0.56296,1.51147 1.2872,3.45949 1.60944,4.32893 l 0.58593,1.58079 -5.7213,-0.0541 -5.7213,-0.0541 -1.34864,-3.86774 -1.34864,-3.86774 h -8.85494 -8.85491 l -1.34449,3.86774 -1.34451,3.86774 -5.72559,0.0541 -5.72559,0.0541 z m 28.31012,-14.59466 c 0,-0.0481 -1.10738,-3.32296 -2.46082,-7.27745 -1.35346,-3.95449 -2.65459,-7.7625 -2.89142,-8.46225 -0.23682,-0.69976 -0.48316,-1.27228 -0.5474,-1.27228 -0.0643,0 -0.44972,0.98474 -0.85656,2.18832 -0.40687,1.20358 -1.70969,5.01142 -2.89517,8.46187 -1.18548,3.45045 -2.15541,6.31309 -2.15541,6.36141 0,0.0483 2.65653,0.0879 5.90339,0.0879 3.24686,0 5.90339,-0.0394 5.90339,-0.0875 z m 22.79929,-5.72816 v -21.89728 l 11.0434,0.0895 c 8.99351,0.0729 11.32681,0.14884 12.57014,0.40921 3.65709,0.76584 5.64417,1.68035 7.34347,3.37965 2.08931,2.08931 2.90801,4.38376 2.91159,8.16005 0.005,5.02747 -2.02561,8.35693 -6.28368,10.30397 -0.95063,0.43467 -1.72768,0.83612 -1.72681,0.8921 0,0.056 0.51354,0.32349 1.13924,0.59445 1.46798,0.63574 3.11202,2.1487 4.38544,4.03582 0.88939,1.31803 7.90526,15.30066 7.90526,15.75519 0,0.096 -2.66173,0.17462 -5.91495,0.17462 h -5.91494 l -2.80251,-5.75072 c -3.14801,-6.45975 -4.13068,-8.13675 -5.44654,-9.29502 -1.3255,-1.16676 -2.38381,-1.47833 -5.41758,-1.59496 l -2.59546,-0.0998 v 8.37024 8.37024 h -5.59803 -5.59804 v -21.89728 z m 18.22611,-2.75262 c 3.15286,-0.58284 4.57767,-2.55875 4.30968,-5.97653 -0.13586,-1.73255 -0.50004,-2.64587 -1.40077,-3.51296 -1.16558,-1.12205 -2.07541,-1.33197 -6.22388,-1.43598 l -3.71507,-0.0932 v 5.62036 5.62036 h 2.9143 c 1.60287,0 3.45497,-0.0999 4.11574,-0.22209 z m 68.28904,21.1887 v -3.4612 l 4.60218,-5.54656 c 2.53119,-3.0506 5.547,-6.69161 6.70181,-8.09112 1.1548,-1.39951 4.33921,-5.24688 7.07645,-8.54972 l 4.9768,-6.00517 -11.37328,-0.0526 -11.37326,-0.0526 v -4.27317 -4.27317 h 18.42263 18.42264 l -0.002,3.40972 -0.002,3.40971 -2.89929,3.48151 c -11.87139,14.25531 -20.41384,24.55966 -20.45683,24.67609 -0.028,0.0759 5.35374,0.11361 11.95945,0.0839 l 12.01038,-0.0541 v 4.37984 4.37984 h -19.03333 -19.03334 v -3.4612 z m 55.70898,3.32549 c -0.0747,-0.0746 -0.13572,-7.99841 -0.13572,-17.60838 v -17.47266 h -7.22656 -7.22656 v -4.27487 -4.27487 h 20.15295 20.15294 v 4.27487 4.27487 h -7.22656 -7.22656 v 17.60837 17.60838 h -5.56411 c -3.06027,0 -5.62519,-0.0611 -5.69982,-0.13571 z m 21.74588,-0.22053 c 0.079,-0.19593 1.03983,-2.78376 2.13509,-5.75072 3.15984,-8.55963 5.36643,-14.51573 7.73014,-20.86541 1.20869,-3.24686 3.10219,-8.35322 4.20783,-11.34747 l 2.01023,-5.44408 6.79065,0.0496 6.79066,0.0496 0.82181,2.23921 c 1.58879,4.32898 9.46606,25.56558 12.96341,34.94854 1.2387,3.32327 2.25219,6.14155 2.25219,6.26285 0,0.15434 -1.69096,0.2043 -5.63285,0.16643 l -5.63283,-0.0541 -1.37132,-3.86774 -1.37129,-3.86773 -8.82945,-0.053 -8.82944,-0.053 -1.39843,3.97163 -1.39841,3.97162 h -5.69084 c -5.33888,0 -5.68195,-0.022 -5.54715,-0.35623 z m 28.75202,-15.97986 c -0.0537,-0.13995 -1.22062,-3.55221 -2.59314,-7.58279 -1.37253,-4.03059 -2.67918,-7.82512 -2.90365,-8.43229 l -0.40812,-1.10393 -1.88363,5.48058 c -1.03601,3.01433 -2.38847,6.92335 -3.00548,8.68674 l -1.12185,3.20615 h 6.00676 c 4.72177,0 5.98587,-0.0544 5.90911,-0.25446 z m 27.46755,16.20039 c -0.0747,-0.0746 -0.13574,-7.99841 -0.13574,-17.60838 v -17.47266 h -7.22656 -7.22656 v -4.27487 -4.27487 h 26.15336 26.1535 l 0.2875,0.45802 c 0.4947,0.78806 5.3793,8.45095 7.5256,11.8059 1.1278,1.76291 2.1102,3.13697 2.1831,3.05348 0.073,-0.0835 1.2731,-1.93808 2.6672,-4.12132 1.394,-2.18323 3.5745,-5.59549 4.8455,-7.5828 l 2.3108,-3.61328 h 6.1728 6.1727 l -2.3001,3.5115 c -1.2651,1.93132 -5.0193,7.6467 -8.3425,12.70085 l -6.0423,9.18935 v 9.18239 9.1824 h -5.598 -5.5981 v -9.21132 -9.21132 l -5.2383,-7.98439 c -2.8811,-4.39143 -6.5208,-9.93348 -8.0882,-12.31569 l -2.8499,-4.33129 -0.055,3.91863 -0.055,3.91863 h -7.2222 -7.2222 v 17.60837 17.60838 h -5.5641 c -3.0603,0 -5.6252,-0.0611 -5.6998,-0.13571 z M 265.12398,655.35588 c 0,-0.17752 -1.00749,-4.55162 -2.23886,-9.72023 -1.23137,-5.16861 -2.93275,-12.31077 -3.78084,-15.87148 l -1.54199,-6.47401 1.23053,-5.1292 c 0.67679,-2.82106 1.5478,-6.50326 1.93557,-8.18267 0.38777,-1.67941 1.61849,-6.85505 2.73494,-11.50143 1.11644,-4.64637 2.27758,-9.52942 2.5803,-10.85122 0.30272,-1.3218 0.5843,-2.36936 0.62575,-2.32791 0.0415,0.0415 0.90392,3.55042 1.91661,7.79774 1.01268,4.24731 2.13658,8.95905 2.49755,10.47052 l 0.6563,2.74813 6.60282,0.0537 c 3.63154,0.0296 6.67243,-0.0162 6.75754,-0.10178 0.1436,-0.14438 1.42604,-5.46441 6.30464,-26.15406 1.04852,-4.44664 1.9647,-8.0192 2.03597,-7.93904 0.0713,0.0802 0.51547,1.84043 0.98711,3.91171 0.47162,2.07127 1.75986,7.52173 2.86272,12.11212 2.06964,8.61431 4.27148,17.95672 4.27148,18.12392 0,0.0523 0.31235,0.0951 0.69412,0.0951 h 0.69411 l -0.25549,1.06872 c -0.14054,0.58779 -0.91588,3.86265 -1.72302,7.27745 -0.80711,3.4148 -2.24908,9.50649 -3.20437,13.53708 -0.95529,4.03058 -2.45577,10.39708 -3.3344,14.14777 -2.8803,12.29524 -2.69034,11.57701 -2.88026,10.89072 -0.0929,-0.33588 -0.76718,-3.19886 -1.4983,-6.36218 -0.73113,-3.16331 -2.14242,-9.16339 -3.13623,-13.3335 -0.99378,-4.17012 -1.96206,-8.29196 -2.1517,-9.15966 l -0.3448,-1.57763 h -5.64439 -5.64439 l -1.25509,5.34358 c -0.69029,2.93898 -1.94711,8.27492 -2.79291,11.85767 -0.8458,3.58275 -2.01316,8.55227 -2.59413,11.0434 -0.58096,2.49113 -1.12618,4.52932 -1.2116,4.52932 -0.0854,0 -0.15529,-0.14524 -0.15529,-0.32276 z m 283.36257,-41.9634 v -4.27581 l 2.02883,-0.0977 c 1.76471,-0.085 2.20345,-0.18365 3.37014,-0.75802 1.55526,-0.76565 2.50025,-1.89339 3.07907,-3.67457 0.33893,-1.04302 0.3692,-2.58339 0.42903,-21.83493 l 0.0644,-20.71274 h 5.59775 5.59775 l -0.0615,21.62879 -0.0615,21.62878 -0.45429,1.62852 c -0.65259,2.33934 -1.73004,4.39552 -3.05085,5.82216 -3.02675,3.26923 -6.61017,4.58049 -13.12916,4.80427 l -3.40971,0.11704 v -4.2758 z m -60.36722,-6.96933 c -12.72958,-1.1404 -20.65168,-9.745 -20.65168,-22.43087 0,-10.43046 5.0577,-18.10873 13.96544,-21.20148 3.17712,-1.10308 5.53937,-1.46492 9.54633,-1.46227 4.69287,0.003 7.68983,0.58985 11.75537,2.30149 l 1.78069,0.74969 v 4.54086 4.54087 l -0.86515,-0.53775 c -4.27088,-2.65463 -9.41387,-3.92458 -13.58229,-3.35385 -5.57093,0.76277 -9.21627,4.298 -10.41936,10.10467 -0.34903,1.68449 -0.39866,2.48407 -0.30785,4.95993 0.18294,4.98877 1.13514,7.55758 3.77931,10.19577 1.82258,1.81848 3.4286,2.68925 5.78963,3.13909 4.61796,0.87985 9.78666,-0.12693 14.09776,-2.74602 0.7403,-0.44975 1.38243,-0.81772 1.42697,-0.81772 0.0445,0 0.081,2.00255 0.081,4.4501 v 4.45011 l -1.57763,0.71838 c -4.41284,2.00944 -9.66944,2.86037 -14.81954,2.399 z m -162.22021,-1.98884 c 0.28534,-0.75748 1.01097,-2.70549 1.61252,-4.32893 0.60158,-1.62343 2.14702,-5.79142 3.43433,-9.26221 1.2873,-3.47078 3.68165,-9.92888 5.32076,-14.35133 1.63911,-4.42245 3.51083,-9.46069 4.15934,-11.19608 l 1.17915,-3.15526 6.75124,-0.0536 6.75126,-0.0536 0.21968,0.56255 c 0.25106,0.64289 4.41093,11.8408 7.80894,21.02084 3.83059,10.34872 6.94171,18.73582 7.60884,20.51234 l 0.63186,1.68258 -5.72559,-0.0541 -5.72559,-0.0541 -1.34451,-3.86774 -1.34449,-3.86774 h -8.85477 -8.85478 l -1.34448,3.86774 -1.34451,3.86774 -5.72899,0.0541 -5.72898,0.0541 0.51877,-1.37723 z m 28.38636,-14.79828 c 0,-0.0481 -1.06178,-3.18559 -2.35951,-6.9721 -1.29772,-3.78651 -2.59963,-7.5945 -2.8931,-8.4622 -0.2935,-0.8677 -0.58542,-1.57763 -0.64875,-1.57763 -0.0633,0 -0.448,0.98475 -0.85485,2.18832 -0.40686,1.20358 -1.70968,5.01142 -2.89516,8.46188 -1.18548,3.45045 -2.15541,6.31308 -2.15541,6.36141 0,0.0483 2.65653,0.0879 5.90339,0.0879 3.24686,0 5.90339,-0.0394 5.90339,-0.0875 z m 22.79928,-5.71407 v -21.88324 h 5.59568 5.59568 l 0.0533,7.94224 0.0533,7.94225 8.07736,-7.94508 8.07734,-7.94509 6.49533,0.0537 6.49534,0.0537 -10.45252,10.28004 -10.45251,10.28003 10.99505,10.98182 c 6.94096,6.93259 11.06633,10.91054 11.18837,10.78852 0.10632,-0.10633 0.98185,-2.34582 1.94565,-4.97665 0.9638,-2.63085 2.60641,-7.07346 3.65025,-9.87248 1.04386,-2.79902 2.9325,-7.88305 4.19698,-11.29786 1.26447,-3.4148 3.13505,-8.45304 4.1568,-11.19608 l 1.85778,-4.98734 h 6.79109 6.79109 l 1.00897,2.74813 c 0.55494,1.51147 2.18177,5.90847 3.61518,9.77112 1.4334,3.86265 3.81086,10.27495 5.28322,14.24956 2.86538,7.73501 4.93556,13.30011 5.77518,15.52499 l 0.51973,1.37722 -5.71916,-0.054 -5.71919,-0.0541 -1.37046,-3.86773 -1.37046,-3.86774 h -8.831 -8.831 l -1.07179,3.05348 c -0.5895,1.67941 -1.21556,3.44279 -1.3913,3.91863 l -0.3195,0.86515 h -12.04531 -12.04529 l -8.54792,-8.54974 c -4.70136,-4.70235 -8.61703,-8.54973 -8.70149,-8.54973 -0.0845,0 -0.15359,3.84738 -0.15359,8.54973 v 8.54974 h -5.59804 -5.59804 V 583.9219 Z m 70.22995,5.71415 c 0,-0.0481 -1.0162,-3.04814 -2.25821,-6.66676 -1.24201,-3.61861 -2.54444,-7.42664 -2.89429,-8.46227 -0.34984,-1.03564 -0.68481,-1.88234 -0.74437,-1.88156 -0.11009,10e-4 -5.92828,16.66559 -5.9164,16.94537 0.007,0.15703 11.81327,0.22221 11.81327,0.0652 z m 77.15116,6.88581 v -9.28329 l -5.42932,-8.2742 c -2.98614,-4.55081 -6.4522,-9.83147 -7.70235,-11.7348 -1.25016,-1.90334 -2.51808,-3.84993 -2.81761,-4.32576 l -0.5446,-0.86515 6.16041,0.006 6.16039,0.006 1.8432,2.89453 c 1.01377,1.59199 3.21228,5.06546 4.88556,7.71882 1.67331,2.65335 3.08816,4.82803 3.14414,4.83261 0.0928,0.008 4.17166,-6.34822 8.24439,-12.84659 l 1.62852,-2.59843 6.15784,-0.007 c 3.38682,-0.003 6.15785,0.0305 6.15785,0.0761 0,0.0455 -3.41587,5.2899 -7.59082,11.6541 -4.17496,6.36421 -7.88493,12.03734 -8.24439,12.60694 l -0.65356,1.03565 v 9.19349 9.1935 h -5.69983 -5.69982 v -9.28328 z M 579.632,583.91906 v -21.88614 l 6.3448,0.0538 6.3449,0.0538 0.997,1.83209 c 0.5483,1.00765 1.9845,3.70997 3.1915,6.00517 4.2801,8.13869 10.0574,19.05342 10.8287,20.45829 l 0.7824,1.42495 v -14.91114 -14.91114 h 5.3945 5.3945 v 21.88325 21.88324 h -6.2955 -6.2956 l -1.62,-3.00258 c -0.8911,-1.65143 -2.5142,-4.69727 -3.6068,-6.76854 -1.0927,-2.07128 -3.2254,-6.10187 -4.7393,-8.95687 -1.514,-2.855 -3.4682,-6.56497 -4.3427,-8.24438 l -1.5901,-3.05348 v 15.01293 15.01292 h -5.3944 -5.3945 v -21.88615 z m 50.2806,0.003 v -21.88324 h 15.1656 15.1656 v 4.27486 4.27487 h -9.5676 -9.5675 v 3.9674 3.9674 l 9.0077,0.053 9.0078,0.053 0.055,4.32576 0.055,4.32576 h -9.0663 -9.0663 l 0.054,4.93645 0.054,4.93645 9.822,0.0529 9.8221,0.0529 v 4.27291 4.27291 h -15.471 -15.4709 v -21.88325 z m -349.99402,9.46577 c -0.0708,-0.16794 -0.49265,-1.86262 -0.93752,-3.76595 -0.4449,-1.90334 -1.23068,-5.20109 -1.74621,-7.32835 -0.51552,-2.12725 -1.56625,-6.57006 -2.33494,-9.8729 -0.76868,-3.30284 -1.66963,-7.08152 -2.00209,-8.39706 l -0.60448,-2.39189 h 7.61139 c 4.18628,0 7.61236,0.0687 7.61352,0.15267 0.002,0.16056 -0.88537,3.9594 -4.86329,20.81453 -1.33439,5.65402 -2.46701,10.46325 -2.51694,10.68717 -0.0716,0.32126 -0.11793,0.34273 -0.21944,0.10178 z m 25.31913,-6.26085 c -0.59217,-2.54643 -1.79402,-7.65282 -2.67075,-11.34753 -2.50843,-10.57098 -3.24405,-13.73392 -3.24405,-13.94839 0,-0.12632 2.60093,-0.19938 7.09805,-0.19938 h 7.09805 l -0.25086,1.06872 c -0.13797,0.58779 -1.09778,4.64128 -2.13289,9.00775 -1.03513,4.36647 -2.52158,10.64136 -3.30323,13.94421 -0.78165,3.30284 -1.44289,6.02752 -1.46942,6.05484 -0.0265,0.0273 -0.53271,-2.03377 -1.1249,-4.58022 z"
       id="path4222"
       inkscape:connector-curvature="0"
       sodipodi:nodetypes="csssssssssscsssssssscssssssscccsssssssssscssssscccsccsssccccsssssccccsssssscsscscscssssssscssssssscsccssscsssssssssssccsssssssssssscscssscscsssssscccssscsssssccsssssssccccsssssccccccsccccccccccccccccccccccccccccccccccccccccccccccccccccsssssssccccsssscccccccccscscscssccssscccccccccssscsssscscscccccccccsscssccccccccscccscccscccccccccccccccccccccccccccccsscccccccccccccssccccccccccsccccccsssccccccccccccsscccscssscccccsccccccccsscccccccccscscccccccccccscscccccccccccsccccccccccccccccccccccccccccccccccscccsccssscssssccccsssssssccssssscccsscccccccccccccssscscsssssccsssccccssscsssccccccccssccccsccccssscccccccccscsccccccccscccccccccccccsccssscccsssscccccccsccsscsscsccsccccccccscccccccscccccccsccccccccscccsscssssssscccscssssccssscssscccsssscccccscscccccsssccccsscscccsscsssssscsccccssccccssscccccccccccccsscsssssssccccccccccccscsssscccsssscccccccsccccsssccccccscccccccssscccsscsccsssccccccccccccccccccccccccccccccccccccccccccccccccccccccccccccccssscscsccsssscssscs" />
  </g>
</svg>
