<?xml version="1.0" encoding="UTF-8" standalone="no"?>
<!-- Created with Inkscape (http://www.inkscape.org/) -->

<svg
   xmlns:dc="http://purl.org/dc/elements/1.1/"
   xmlns:cc="http://creativecommons.org/ns#"
   xmlns:rdf="http://www.w3.org/1999/02/22-rdf-syntax-ns#"
   xmlns:svg="http://www.w3.org/2000/svg"
   xmlns="http://www.w3.org/2000/svg"
   xmlns:sodipodi="http://sodipodi.sourceforge.net/DTD/sodipodi-0.dtd"
   xmlns:inkscape="http://www.inkscape.org/namespaces/inkscape"
   width="177.34343mm"
   height="123.99778mm"
   viewBox="0 0 628.38223 439.36221"
   id="svg2"
   version="1.1"
   inkscape:version="0.92.4 (5da689c313, 2019-01-14)"
   sodipodi:docname="logo_w.svg">
  <defs
     id="defs4" />
  <sodipodi:namedview
     id="base"
     pagecolor="#ffffff"
     bordercolor="#666666"
     borderopacity="1.0"
     inkscape:pageopacity="0.0"
     inkscape:pageshadow="2"
     inkscape:zoom="0.81454783"
     inkscape:cx="190.30104"
     inkscape:cy="317.74534"
     inkscape:document-units="px"
     inkscape:current-layer="layer1"
     showgrid="false"
     inkscape:window-width="636"
     inkscape:window-height="1039"
     inkscape:window-x="1280"
     inkscape:window-y="20"
     inkscape:window-maximized="0" />
  <metadata
     id="metadata7">
    <rdf:RDF>
      <cc:Work
         rdf:about="">
        <dc:format>image/svg+xml</dc:format>
        <dc:type
           rdf:resource="http://purl.org/dc/dcmitype/StillImage" />
        <dc:title></dc:title>
      </cc:Work>
    </rdf:RDF>
  </metadata>
  <g
     inkscape:label="Layer 1"
     inkscape:groupmode="layer"
     id="layer1"
     transform="translate(-200.71408,-465.97121)">
    <path
       style="fill:#01093a"
       d="m 305.12799,904.93436 c -0.2417,-0.41188 -4.97037,-19.97044 -11.50971,-47.60641 -2.05949,-8.70349 -5.42999,-22.94551 -7.49008,-31.64898 -2.06003,-8.70347 -5.90619,-24.80056 -8.54699,-35.77132 -2.64077,-10.97076 -5.96644,-24.97343 -7.39034,-31.11703 -1.42392,-6.14364 -3.81356,-16.19684 -5.31032,-22.34046 -1.49675,-6.1436 -4.03724,-16.79522 -5.64554,-23.67022 -2.99039,-12.7832 -10.66099,-45.00373 -19.62773,-82.44686 -2.76735,-11.55587 -6.00469,-25.19951 -7.19408,-30.31919 -1.18938,-5.11967 -4.17625,-17.68619 -6.63752,-27.92556 -2.46125,-10.23937 -6.17524,-25.79789 -8.2533,-34.57447 -13.64656,-57.63584 -16.53531,-69.78264 -16.79288,-70.61179 -0.2741,-0.88237 2.55325,-0.93086 54.26801,-0.93086 49.98901,0 54.55717,0.0723 54.55717,0.86372 0,0.47505 2.28982,10.34874 5.08846,21.94149 2.7987,11.59281 6.25402,26.10442 7.6785,32.24804 1.42449,6.14361 3.81416,16.19681 5.31039,22.34045 1.49621,6.14363 4.15005,17.27396 5.89742,24.73406 1.74736,7.46012 5.44086,23.01865 8.20776,34.57451 7.42192,30.99717 13.57038,56.80094 18.88482,79.25538 16.45286,69.51604 24.09299,101.30737 24.44749,101.72844 0.18448,0.21923 3.13228,-11.38981 6.55052,-25.79788 11.79463,-49.71523 14.29432,-60.28755 17.4497,-73.80289 1.74168,-7.46012 5.55294,-23.61706 8.46944,-35.90429 9.04199,-38.09389 13.21534,-55.75817 17.2797,-73.13838 2.15503,-9.21541 6.32854,-26.9282 9.27443,-39.36172 2.94591,-12.43354 7.64916,-32.30056 10.45166,-44.14898 2.80252,-11.8484 5.32478,-22.44017 5.60505,-23.53726 l 0.5096,-1.99469 h 54.63509 54.63507 l 0.89919,3.85639 c 5.54266,23.77064 9.5305,40.69658 12.18755,51.72877 1.76149,7.31383 4.72989,19.88035 6.5964,27.92557 1.86654,8.04521 5.41278,23.12502 7.88055,33.51067 2.46778,10.38566 7.53634,31.80853 11.2635,47.6064 3.72712,15.79789 8.79706,37.22081 11.26647,47.60646 2.46941,10.38562 6.01943,25.46542 7.8889,33.51064 1.86947,8.04522 5.42278,23.12502 7.89624,33.51067 2.47349,10.38566 5.53223,23.37103 6.79717,28.8564 1.26497,5.48538 2.44321,9.97341 2.61834,9.97341 0.17507,0 0.59074,-1.13696 0.92367,-2.5266 0.33289,-1.38962 2.98776,-12.5798 5.89971,-24.86703 2.9119,-12.28726 6.85371,-28.80322 8.75958,-36.70216 1.90581,-7.89894 4.08223,-17.09968 4.83645,-20.44604 2.6819,-11.89942 2.22842,-11.89653 5.13593,-0.0327 1.39808,5.70479 4.39546,18.33113 6.66085,28.05852 l 4.11889,17.68618 h 17.60828 17.60826 l 5.95057,-25.133 c 6.84222,-28.89896 13.10115,-55.42929 14.30552,-60.63836 0.45658,-1.97471 0.98371,-3.58901 1.17137,-3.58728 0.18761,10e-4 2.06331,7.3621 4.16801,16.3564 2.10472,8.99429 5.99988,25.449 8.65588,36.56603 2.65597,11.11703 5.69112,23.86306 6.74476,28.3245 l 1.91569,8.11171 h 1.74828 1.74831 l -0.72905,3.05852 c -0.40093,1.6822 -2.53445,10.7181 -4.74112,20.0798 -2.20664,9.36172 -6.641,28.15162 -9.8541,41.75537 -3.21307,13.60373 -7.53368,31.90752 -9.60133,40.67512 -3.23335,13.71071 -4.23539,17.52504 -4.23539,16.12229 0,-0.6345 -16.31661,-70.32758 -18.21649,-77.80808 l -0.67549,-2.65958 -14.50008,-0.14136 -14.50012,-0.14163 -0.45312,1.20539 c -0.24928,0.66292 -2.18353,8.62557 -4.29851,17.69473 -2.11496,9.06917 -6.31568,26.90163 -9.33491,39.62769 -3.01924,12.72606 -5.65498,24.03594 -5.85717,25.133 -0.35573,1.93005 -1.31309,2.80878 -1.31309,1.20525 0,-0.4342 -2.73531,-12.22278 -6.07849,-26.19683 -3.34316,-13.97406 -7.6785,-32.2292 -9.6341,-40.56697 -1.9556,-8.33779 -3.72256,-15.46723 -3.92659,-15.84325 -0.20407,-0.37601 -1.52237,4.29157 -2.92969,10.37236 -1.4073,6.08079 -4.65686,19.86854 -7.2212,30.6394 l -4.66243,19.58344 3.4241,14.19319 c 4.15425,17.21976 9.75165,41.16958 9.75172,41.72515 5e-5,0.22236 -11.05213,0.34202 -24.56037,0.26595 l -24.56041,-0.13823 -2.8332,-11.96812 c -1.55823,-6.58245 -5.5843,-23.45746 -8.94679,-37.50003 -8.27126,-34.54289 -12.111,-50.62346 -18.60729,-77.9256 -5.46921,-22.98569 -9.52657,-39.93992 -17.12108,-71.54261 -2.1794,-9.06915 -6.08978,-25.46542 -8.68969,-36.43619 -2.5999,-10.97075 -6.50876,-27.36703 -8.68639,-36.4362 -2.17762,-9.06915 -6.26796,-26.18353 -9.08966,-38.03194 -2.82169,-11.84842 -5.31439,-21.99408 -5.53929,-22.5459 -0.29363,-0.72054 -0.676,0.25398 -1.35657,3.45743 -0.5212,2.45343 -3.65083,15.83047 -6.95468,29.72677 -6.87045,28.89797 -11.27142,47.49831 -19.44449,82.1809 -6.54881,27.78996 -9.59039,40.66703 -18.84587,79.78732 -3.59923,15.21278 -9.59398,40.58513 -13.32166,56.38304 -3.72769,15.79788 -9.00046,38.05854 -11.7173,49.46812 -2.71682,11.40959 -5.49012,23.19815 -6.16293,26.19684 l -1.22325,5.45212 h -65.28719 c -35.90796,0 -65.39258,-0.17951 -65.52135,-0.39894 z m 374.10785,-0.0588 c 0,-0.2519 2.63041,-11.56166 5.84532,-25.133 3.21494,-13.5713 7.90891,-33.41182 10.43109,-44.09003 2.52218,-10.67821 4.67337,-19.50902 4.78045,-19.62404 0.32873,-0.35302 0.62937,0.79642 4.15909,15.90063 1.8801,8.0452 5.34013,22.64629 7.68899,32.44684 5.30091,22.11785 9.6483,40.48006 9.6483,40.75184 0,0.11309 -9.57448,0.20563 -21.27665,0.20563 -11.70212,0 -21.27659,-0.20589 -21.27659,-0.45787 z m 23.40428,-194.00164 c 0,-0.46385 -2.63257,-11.89338 -5.85014,-25.39895 -3.21756,-13.50558 -7.66328,-32.16803 -9.87934,-41.47217 l -4.02921,-16.91659 3.21538,-13.40259 c 1.76846,-7.37142 4.0444,-16.99301 5.05764,-21.38131 1.01324,-4.3883 4.22911,-17.91224 7.14639,-30.05322 2.91726,-12.14096 5.95131,-24.90038 6.74232,-28.35424 0.79101,-3.45385 1.52678,-6.19114 1.63509,-6.08282 0.1085,0.10838 2.36195,9.27723 5.0081,20.37549 2.64614,11.09821 5.58288,23.40998 6.5261,27.35945 l 1.71491,7.18086 17.25316,0.14033 c 9.48921,0.0773 17.43506,-0.0423 17.65745,-0.26596 0.37522,-0.37726 3.72624,-14.27849 16.47402,-68.34054 2.73978,-11.61906 5.13376,-20.95416 5.31998,-20.7447 0.18631,0.20956 1.34693,4.80905 2.57933,10.2213 1.23234,5.41222 4.59851,19.65426 7.48029,31.64895 5.40797,22.5092 11.16136,46.9209 11.16136,47.3578 0,0.13665 0.81618,0.24849 1.81374,0.24849 h 1.81371 l -0.6676,2.79256 c -0.36723,1.5359 -2.39319,10.09311 -4.50225,19.01598 -2.10898,8.92286 -5.87684,24.84044 -8.37301,35.37237 -2.49617,10.53191 -6.41693,27.16757 -8.71278,36.96812 -7.52623,32.12745 -7.02987,30.25072 -7.52612,28.45744 -0.24275,-0.87765 -2.00464,-8.35861 -3.91505,-16.62437 -1.91045,-8.26573 -5.59816,-23.94392 -8.19497,-34.84042 -2.59676,-10.89652 -5.12687,-21.6669 -5.62239,-23.93419 l -0.90097,-4.12235 H 738.31648 723.5677 l -3.27956,13.96278 c -1.80373,7.67954 -5.0878,21.62236 -7.29787,30.98409 -2.21008,9.36171 -5.26039,22.34706 -6.77847,28.85638 -1.51804,6.50933 -2.94269,11.83511 -3.1659,11.83511 -0.22315,0 -0.40578,-0.37951 -0.40578,-0.84337 z M 741.2984,548.95145 c -0.185,-0.43883 -1.28729,-4.86703 -2.44974,-9.84042 -1.16252,-4.97342 -3.21577,-13.59045 -4.56285,-19.14898 -1.34704,-5.5585 -4.0926,-17.16756 -6.10119,-25.79787 -2.00857,-8.63033 -4.36274,-18.504 -5.23146,-21.94151 l -1.57951,-6.25001 h 19.88856 c 10.93875,0 19.89109,0.17951 19.89413,0.39892 0.005,0.41954 -2.31348,10.34592 -12.70778,54.38836 -3.48676,14.77395 -6.4463,27.34046 -6.57676,27.92556 -0.18709,0.83945 -0.30815,0.89555 -0.5734,0.26595 z m 66.15886,-16.3596 c -1.54733,-6.65381 -4.68777,-19.99681 -6.97866,-29.65108 -6.55451,-27.62196 -8.4767,-35.88673 -8.4767,-36.44714 0,-0.33006 6.79623,-0.52097 18.5472,-0.52097 h 18.54721 l -0.65551,2.79257 c -0.36051,1.53588 -2.86849,12.12764 -5.57324,23.53723 -2.70479,11.40959 -6.58889,27.80586 -8.63132,36.43621 -2.04246,8.63032 -3.77029,15.7499 -3.83961,15.8213 -0.0692,0.0713 -1.39197,-5.31424 -2.93937,-11.96812 z"
       id="path4222"
       inkscape:connector-curvature="0"
       sodipodi:nodetypes="csssssssssscsssssssscssssssscccsssssssssscssssscccsccsssccccsssssccccsssssscsscscscssssssscssssssscsccssscssssscsscssssssscccscssssccssscssscccssssccccssscscsccsssscssscs" />
  </g>
</svg>
